<svg id="visual" viewBox="0 0 900 400" width="900" height="400" xmlns="http://www.w3.org/2000/svg" xmlns:xlink="http://www.w3.org/1999/xlink" version="1.1"><rect x="0" y="0" width="900" height="400" fill="#ffffff"></rect><defs><linearGradient id="grad1_0" x1="55.6%" y1="0%" x2="100%" y2="100%"><stop offset="5%" stop-color="#ffffff" stop-opacity="1"></stop><stop offset="95%" stop-color="#ffffff" stop-opacity="1"></stop></linearGradient></defs><defs><linearGradient id="grad2_0" x1="0%" y1="0%" x2="44.4%" y2="100%"><stop offset="5%" stop-color="#ffffff" stop-opacity="1"></stop><stop offset="95%" stop-color="#ffffff" stop-opacity="1"></stop></linearGradient></defs><g transform="translate(900, 0)"><path d="M0 100C-14.4 92.2 -28.8 84.4 -44.5 77.1C-60.2 69.7 -77.1 62.8 -86.6 50C-96.1 37.2 -98 18.6 -100 0L0 0Z" fill="#0ca554"></path></g><g transform="translate(0, 400)"><path d="M0 -100C12.3 -88.5 24.6 -77 40.5 -70.1C56.4 -63.2 76.1 -60.9 86.6 -50C97.1 -39.1 98.6 -19.5 100 0L0 0Z" fill="#0ca554"></path></g></svg>